<svg width="50" height="56" viewBox="0 0 50 56" fill="none" xmlns="http://www.w3.org/2000/svg">
<circle opacity="0.7" cx="25" cy="31" r="25" fill="#D2C164" fill-opacity="0.49"/>
<path d="M24.2929 37.7071C24.6834 38.0976 25.3166 38.0976 25.7071 37.7071L32.0711 31.3431C32.4616 30.9526 32.4616 30.3195 32.0711 29.9289C31.6805 29.5384 31.0474 29.5384 30.6569 29.9289L25 35.5858L19.3431 29.9289C18.9526 29.5384 18.3195 29.5384 17.9289 29.9289C17.5384 30.3195 17.5384 30.9526 17.9289 31.3431L24.2929 37.7071ZM24 4.37114e-08L24 37L26 37L26 -4.37114e-08L24 4.37114e-08Z" fill="#515532"/>
<rect x="15" y="42" width="20" height="2" rx="1" fill="#515532"/>
</svg>
