<svg width="172" height="111" viewBox="0 0 172 111" fill="none" xmlns="http://www.w3.org/2000/svg">
<path d="M0 75.107C0.152363 74.4976 0.355514 73.431 0.558665 72.3645C0.609453 72.0598 0.761819 71.6535 0.660243 71.3995C0.253941 70.2822 0.761817 69.2664 1.01576 68.2507C1.2697 67.2349 1.62521 66.27 1.72679 65.2542C1.92994 62.9688 2.74254 60.9372 3.55515 58.8549C3.80909 58.1947 4.01224 57.5345 4.06302 56.8234C4.06302 56.1124 4.26618 55.4522 4.41854 54.7411C4.5709 54.0809 4.92642 53.3699 4.92642 52.7096C4.87563 50.9828 5.89139 49.4592 5.99296 47.7832C5.99296 47.7324 5.99296 47.6816 6.04375 47.6308C7.0595 46.158 7.21187 44.3804 7.61817 42.7044C8.43078 39.1493 10.1068 35.8481 10.767 32.2929C10.767 32.1914 10.8686 32.0898 10.8686 31.9882C10.8178 29.7028 12.0875 27.722 12.4938 25.5382C12.6969 24.2685 13.1033 22.9988 13.2048 21.7291C13.3572 20.2054 14.1698 18.885 14.4237 17.4121C14.4745 17.209 14.5761 17.0058 14.5761 16.8027C14.3729 14.8219 14.9824 13.0444 15.5411 11.216C15.8966 10.1495 16.1505 9.84474 17.2171 9.79395C17.9281 9.74316 18.6391 9.74316 19.3502 9.79395C20.2643 9.84474 20.6198 10.0987 20.5183 10.9621C20.4167 12.1302 20.8738 13.0952 21.3817 14.0601C22.3974 15.9393 22.8037 18.0216 23.21 20.1039C23.4132 21.0688 23.7179 21.983 23.9718 22.8972C24.3781 24.4716 24.0734 26.1476 24.7844 27.6712C25.0384 28.2807 24.5305 29.1949 24.7844 29.8551C25.0384 30.5662 25.597 31.1248 25.5463 31.9374C25.5463 32.1406 25.5971 32.3945 25.6986 32.5469C26.3081 33.3087 26.5112 34.1213 26.2065 35.0863C26.1557 35.2894 26.2065 35.5434 26.3081 35.6957C26.9175 36.8638 26.8667 38.1335 26.8667 39.4032C26.8667 39.9111 27.0699 40.4698 27.1207 40.9776C27.2731 41.9934 27.3238 43.0092 27.4762 44.0249C27.5778 44.7867 27.7301 45.4978 27.9841 46.2596C28.3396 47.3261 28.8475 48.3927 28.238 49.5608C28.1364 49.7639 28.2888 50.1702 28.4412 50.475C29.2538 52.1002 29.3046 53.827 29.4569 55.5537C29.5585 56.3663 29.6601 57.1789 29.8124 57.9916C29.8632 58.4486 30.0156 58.9565 30.0664 59.4136C30.2187 60.6325 30.3711 61.9022 30.5743 63.1211C30.625 63.5274 30.7774 63.9845 30.7774 64.3908C30.7266 65.8637 31.1329 67.4889 31.3869 68.9109C31.59 70.0283 31.7932 71.1964 31.9455 72.3137C32.1487 73.6342 32.2503 74.9547 32.4026 76.3259C32.555 77.9512 33.8755 84.2996 30.0664 82.9284C28.9998 82.5221 27.9841 82.0142 27.4762 80.8461C26.7652 79.2716 26.0541 77.748 26.1557 76.0212C26.1557 75.5641 26.3081 75.0563 26.3589 74.5992C26.4097 74.1929 26.5112 73.5834 26.3081 73.3803C25.597 72.72 25.9018 71.8566 25.8002 71.0948C25.3939 68.9617 25.5971 66.7778 24.9368 64.6448C24.7337 64.0353 24.886 63.3751 24.8352 62.7148C24.7844 61.6991 24.6829 60.6325 24.6321 59.6168C24.5813 59.1597 24.4797 58.7534 24.5305 58.2963C24.7337 56.5695 24.2258 55.0459 23.5655 53.573C23.3624 53.1159 23.3624 52.608 23.2608 52.151C22.8545 49.8147 22.8545 47.4785 22.8545 45.1423C22.8545 44.7867 22.7021 44.3804 22.5498 44.0249C22.0927 42.9584 22.0927 41.8918 22.2451 40.7745C22.3974 39.9619 22.2958 39.3017 21.9403 38.5906C21.6356 37.9812 21.3817 37.3209 21.7372 36.5591C21.8895 36.2544 21.6864 35.6449 21.4832 35.3402C20.7214 34.3752 20.6706 33.2071 20.6198 32.0898C20.5691 31.1756 20.3659 30.4138 20.0104 29.6012C19.6549 28.7886 19.5025 27.8236 19.2486 26.9602C19.1978 26.8079 19.2486 26.6047 19.1978 26.5031C19.0454 26.3 18.8423 26.0968 18.6391 25.9953C18.5375 25.9445 18.2328 26.1476 18.1312 26.3C17.5218 27.4681 16.9631 28.6362 16.4045 29.8043C16.3029 30.0583 16.2521 30.5154 16.4045 30.7693C17.0647 32.3945 16.3537 33.7658 15.5411 35.0863C15.0332 35.8481 14.8808 36.6607 14.6777 37.4733C14.2206 39.4032 14.3222 41.4855 13.3064 43.3139C13.154 43.517 13.1033 43.8218 13.1033 44.0757C13.154 45.0407 12.8493 45.9041 12.5446 46.7674C11.8336 48.7482 11.1225 50.7289 10.5639 52.8112C10.0052 54.9443 9.59889 57.1282 9.19259 59.3628C9.04023 60.1246 8.7355 60.8357 8.68471 61.5467C8.53235 63.4258 8.12605 65.1526 7.56738 66.9302C7.26266 67.9967 7.36423 69.2157 7.1103 70.333C6.95793 71.044 6.39927 71.6535 6.19611 72.3645C5.99296 73.0755 6.6532 73.7866 6.19611 74.5484C5.38351 75.8181 5.48508 77.1893 5.78981 78.6622C6.19611 80.6937 4.31696 82.6744 2.18388 82.5728C1.82836 82.5728 1.42206 82.3697 1.21891 82.1157C0.914181 81.7094 0.609453 81.1508 0.558665 80.6429C0.253938 78.9669 0.152363 77.2909 0 75.107Z" fill="white"/>
<path d="M139.615 60.2278C139.362 58.2979 139.108 56.368 138.854 54.438C138.701 53.2191 138.447 52.0002 138.498 50.7813C138.6 49.1561 138.65 47.5817 138.244 45.9565C138.092 45.3978 138.346 44.7376 138.346 44.1281C138.346 43.4679 138.447 42.8076 138.295 42.1474C138.143 41.4871 138.092 40.9285 138.397 40.3698C138.651 39.7604 138.6 39.1001 138.651 38.4399C138.752 36.6115 138.955 34.7832 139.108 32.9548C139.108 32.904 139.108 32.8532 139.108 32.8024C139.768 31.2788 139.565 29.6028 140.022 28.0284C140.225 27.2666 140.479 26.5555 140.631 25.7937C140.885 24.4732 141.393 23.2543 141.952 22.0354C142.612 20.6641 143.12 19.1913 143.78 17.82C144.593 16.0932 145.405 14.3665 146.269 12.6905C146.37 12.4873 146.472 12.2334 146.624 12.1826C147.488 11.9286 147.691 11.2684 147.945 10.5066C148.199 9.84634 148.605 9.23689 149.113 8.72901C150.687 7.1038 152.16 5.32623 154.039 4.05653C155.715 2.9392 157.34 1.77108 159.22 1.00927C159.981 0.704541 160.743 0.450606 161.607 0.450606C162.419 0.450606 163.232 0.196666 164.044 0.0443026C165.263 -0.158849 166.482 0.349029 167.092 1.314C168.158 3.09157 167.041 4.66599 165.365 5.17386C164.095 5.58017 162.825 5.93568 161.454 5.83411C160.591 5.73253 159.829 6.08805 159.22 6.74829C158.051 8.01798 156.579 8.83059 155.258 9.94792C154.547 10.5066 153.887 11.2176 153.379 11.9286C152.211 13.5539 150.992 15.1791 150.129 16.9566C149.113 18.9881 148.453 21.2228 147.64 23.4067C147.742 25.3366 146.624 27.0634 146.624 28.9933C146.624 29.3489 146.472 29.7044 146.37 30.0091C145.659 31.939 145.202 33.9198 145.101 36.0021C145.05 36.7639 144.745 37.4749 145.101 38.2367C145.202 38.4907 144.948 38.897 144.847 39.2525C144.39 40.8269 144.593 42.4013 144.491 44.0265C144.339 45.7025 144.136 47.3785 143.932 49.0545C143.932 49.2069 143.882 49.3593 143.882 49.5116C143.831 50.7813 144.237 52.0002 144.034 53.3207C143.882 54.2857 144.44 55.403 144.643 56.4695C144.745 57.1298 144.948 57.8408 144.796 58.4503C144.491 59.6184 144.847 60.5833 145.354 61.4975C145.71 62.1578 145.964 62.7672 145.608 63.529C145.456 63.8338 145.507 64.3417 145.659 64.748C145.812 65.3066 146.015 65.9161 146.319 66.4239C146.726 67.0842 146.573 67.6429 146.167 68.2523C145.71 68.8618 145.913 69.4204 146.37 69.9283C146.624 70.1822 146.878 70.4362 147.132 70.6901C147.742 71.198 148.148 71.8074 147.995 72.7216C147.894 73.2803 148.199 73.6866 148.605 74.0929C149.113 74.6516 149.621 75.261 150.078 75.8705C150.23 76.0736 150.433 76.2768 150.433 76.5307C150.636 77.9528 151.449 79.1209 152.16 80.289C153.328 82.3205 154.75 84.2505 156.02 86.2312C156.274 86.6375 156.528 86.993 156.883 87.3485C158.001 88.4151 159.118 89.4816 160.337 90.4466C160.845 90.8529 161.556 91.056 162.114 91.3607C162.673 91.6655 163.232 91.9194 163.689 92.3257C164.908 93.443 164.908 95.4238 163.689 96.5411C163.435 96.7442 162.978 96.9982 162.724 96.9474C161.911 96.6427 160.997 96.795 160.235 96.1856C159.169 95.373 157.899 94.9159 156.985 93.8493C156.782 93.6462 156.477 93.4938 156.172 93.3923C154.141 92.5289 152.922 90.7513 151.601 89.1261C150.789 88.0595 150.078 86.9422 149.316 85.8249C148.605 84.8091 147.843 83.8442 147.234 82.7776C146.624 81.7619 146.218 80.6445 145.71 79.578C145.405 78.9177 144.948 78.3591 144.643 77.6988C144.136 76.5815 143.729 75.4134 143.272 74.2961C142.967 73.4834 142.663 72.6708 142.307 71.909C141.85 70.9948 141.495 70.0299 141.342 69.0141C141.241 68.1507 140.834 67.3381 140.58 66.5255C140.276 65.5606 139.768 64.5956 139.615 63.6306C139.463 62.6149 139.565 61.5483 139.565 60.5326C139.565 60.2786 139.565 60.2278 139.615 60.2278Z" fill="white"/>
<path d="M84.3589 68.4049C84.9683 68.5065 85.5778 68.6588 86.1364 68.7096C87.4061 68.9128 88.5743 68.6588 89.6408 67.9986C90.301 67.5923 90.9105 67.3891 91.6215 67.8462C91.977 68.1002 92.3325 68.151 92.7896 67.9986C93.7038 67.7447 93.653 67.8462 94.2117 68.7604C94.8719 69.8778 94.7196 70.7919 94.0593 71.8077C93.4499 72.6711 92.7388 73.1789 91.6215 72.925C91.0628 72.8234 90.3518 72.8742 89.7931 73.0774C88.7266 73.4837 87.7109 73.4837 86.5935 73.4329C85.7809 73.3821 84.9683 73.2297 84.3589 74.0423C84.2573 74.1947 83.9018 74.3471 83.6478 74.2963C81.4132 74.0931 79.1277 73.9408 77.5025 72.0108C77.0962 71.5537 76.5375 71.249 76.0297 70.8935C74.9631 70.2333 74.2013 69.4207 74.4045 67.9986C74.4553 67.4907 74.4045 66.9828 74.4045 66.4242C74.4045 65.6624 74.3537 64.9005 73.8966 64.1895C73.4903 63.5801 73.3887 62.9706 73.8458 62.3104C74.0997 61.9548 74.2013 61.5486 73.8966 61.193C73.2363 60.482 73.3887 59.6186 73.6427 58.8568C73.8458 58.0442 74.0997 57.2824 73.8458 56.4698C73.795 56.3174 73.795 56.165 73.8458 56.0127C74.2013 54.5398 73.8966 53.1178 73.4395 51.6957C73.3887 51.5434 73.3379 51.3402 73.3887 51.2894C74.2013 50.4768 73.8458 49.1055 74.7092 48.2422C75.1155 47.8358 75.0139 47.5819 74.506 47.2772C73.4395 46.6677 73.4395 46.6677 73.6934 45.5504C73.7442 45.398 73.7442 45.2457 73.795 45.0933C73.9982 44.5854 73.4395 44.1283 73.9474 43.5697C74.2521 43.2142 74.0489 42.4523 74.0997 41.8429C74.1505 41.2842 74.3029 40.7255 74.3537 40.2177C74.3537 39.9637 74.2521 39.7098 74.2521 39.4559C74.2013 38.3893 73.9982 37.272 74.2013 36.2562C74.4553 34.885 74.4045 33.5137 74.2013 32.1424C74.049 31.1774 74.1505 30.0601 74.4045 29.0951C74.8108 27.4192 74.6076 25.6924 74.6584 24.0164C74.6584 23.1022 74.8615 22.2896 75.2678 21.477C75.8773 20.3089 76.3344 20.1057 77.7057 20.3596C78.2135 20.4612 78.9246 20.4612 79.3817 20.2581C81.2608 19.3439 83.2415 19.0392 85.2223 18.5821C86.1364 18.3789 86.9998 18.125 87.8632 18.7344C88.0156 18.836 88.4727 18.7852 88.7266 18.6329C89.4376 18.2266 90.1995 18.2266 90.9613 18.2266C92.4341 18.2774 93.8562 18.2266 95.329 18.2773C95.7861 18.2773 96.294 18.3789 96.5987 18.6329C97.2082 19.1407 97.8176 19.7502 98.2747 20.4612C98.4271 20.7152 98.1731 21.3246 98.0208 21.7309C97.7668 22.3912 97.4113 23.0514 97.0558 23.6609C96.6495 24.3211 96.1416 24.9306 95.2274 24.829C94.0593 24.7274 92.8404 24.7274 91.7231 24.4227C90.9105 24.2195 90.1994 24.2195 89.4884 24.5242C88.879 24.7782 88.3711 24.829 87.7108 24.575C86.6443 24.1687 85.5778 24.0164 84.4096 24.4735C83.9018 24.6766 83.2923 24.4735 82.7337 24.575C82.2258 24.6258 81.7179 24.7274 81.2608 24.8798C80.6006 25.1337 80.3466 25.6416 80.3466 26.3526C80.2958 27.2668 80.1435 28.181 80.0419 29.0951C79.9911 29.3999 79.9911 29.7046 79.9911 29.9585C80.0419 30.9743 80.1435 31.9393 80.1435 32.955C80.1435 34.1739 79.9911 35.3928 80.0419 36.6117C80.1435 37.8307 80.3974 38.0846 81.6163 38.1862C82.7336 38.2877 83.851 38.4401 84.9683 38.6433C85.9333 38.7956 86.8983 38.8464 87.8632 38.694C88.9806 38.4909 90.1487 38.4401 91.2152 38.5925C92.7896 38.8464 94.3641 39.2019 95.9385 39.1003C96.6495 39.0496 97.259 39.2527 97.8176 39.7098C98.0208 39.8622 98.2747 40.1161 98.2747 40.3193C98.2747 41.2842 98.2747 42.2492 98.1223 43.2141C98.0208 43.8236 97.4621 44.0775 96.7511 43.7728C95.9893 43.4173 95.3798 43.6712 94.7196 43.8744C93.7038 44.2299 92.6373 44.7886 91.4692 44.1791C91.3676 44.1283 91.1644 44.1283 91.0121 44.1791C90.0471 44.2299 89.0313 44.3823 88.0664 44.3823C87.7109 44.3823 87.3553 44.2807 87.0506 44.0775C86.3904 43.722 85.8317 43.7728 85.1207 44.0775C84.1557 44.5346 83.1907 44.6362 82.175 44.1283C81.2608 43.6712 80.2451 44.3315 80.0419 45.398C79.8388 46.4138 79.5848 47.3788 79.3309 48.3945C79.2801 48.6992 79.1277 49.004 79.2293 49.2579C79.4325 49.8674 79.4832 50.426 79.2293 51.0863C79.1277 51.3402 79.2293 51.6957 79.2801 51.9497C79.3309 52.4067 79.4324 52.8638 79.3817 53.3209C79.3309 54.3367 79.2293 55.3017 79.1277 56.3174C79.0261 57.1808 78.8738 58.0442 78.8738 58.9076C78.9246 59.771 78.9754 60.5836 78.7722 61.447C78.6199 62.2596 78.4675 63.0722 78.4675 63.8848C78.4675 64.799 78.5183 65.6624 78.6706 66.5765C78.7214 66.8813 79.0769 67.2876 79.3309 67.3384C81.0577 67.897 82.6321 68.608 84.3589 68.4049Z" fill="white"/>
<path d="M48.9596 73.9401C48.6548 73.5846 48.0454 73.5846 47.6899 73.8385C46.9788 74.3464 46.6233 75.3114 46.8265 76.1748C47.0296 77.0382 47.7914 77.6984 48.6548 77.8C49.2135 77.089 50.0261 76.5303 50.8895 76.2763C51.2958 75.1082 49.9245 73.7877 48.7564 74.2448" fill="white"/>
<path d="M105.639 69.9797C104.674 69.2179 102.998 69.8782 102.744 71.0463C102.49 72.2652 103.811 73.4841 104.979 73.1794C105.69 72.9762 106.249 72.3668 106.35 71.6049C106.401 70.8939 105.995 70.1321 105.335 69.8274" fill="white"/>
<path d="M170.393 69.7754C169.784 69.2675 168.971 68.7088 168.311 69.0643C168.006 69.2167 167.803 69.5214 167.651 69.8769C167.245 70.6895 167.143 71.6545 167.346 72.5687C168.26 73.1273 169.53 73.2797 170.393 72.6195C171.257 71.9592 171.257 70.334 170.241 69.9277" fill="white"/>
<path d="M0.1521 109.897V98.3174H1.77731L4.26591 105.275H4.3167V98.3174H5.94191V109.897H4.36748L1.87888 102.939H1.82809V109.897H0.1521Z" fill="white"/>
<path d="M11.5806 109.897L14.1707 98.3174H15.542L18.1322 109.897H16.4562L15.9483 107.408H13.7137L13.2058 109.897H11.5806ZM15.6436 105.834L14.831 101.669H14.7802L13.9676 105.834H15.6436Z" fill="white"/>
<path d="M23.9724 109.897V99.8918H22.0425V98.3174H27.5276V99.8918H25.5976V109.897H23.9724Z" fill="white"/>
<path d="M38.4973 98.3174V107.256C38.4973 107.612 38.4465 107.967 38.2941 108.323C38.1418 108.627 37.9894 108.932 37.7355 109.186C37.4815 109.44 37.1768 109.643 36.8721 109.745C36.5673 109.897 36.2118 109.948 35.8563 109.948C35.5008 109.948 35.1453 109.897 34.8405 109.745C34.5358 109.592 34.2311 109.389 33.9772 109.186C33.7232 108.932 33.5201 108.678 33.3677 108.323C33.2153 108.018 33.1646 107.662 33.1646 107.256V98.3174H34.8405V107.104C34.8405 107.51 34.9421 107.815 35.1453 108.018C35.3484 108.221 35.6024 108.323 35.8563 108.323C36.161 108.323 36.415 108.221 36.5673 108.018C36.7705 107.815 36.8721 107.51 36.8721 107.104V98.3174H38.4973Z" fill="white"/>
<path d="M44.8958 109.897V98.3174H47.5367C49.4667 98.3174 50.4824 99.4347 50.4824 101.72C50.4824 102.38 50.3808 102.99 50.1777 103.447C49.9745 103.904 49.619 104.31 49.0604 104.615L50.8379 109.897H49.1111L47.5875 104.971H46.5718V109.897H44.8958ZM46.5718 99.8918V103.498H47.5367C47.8414 103.498 48.0446 103.447 48.2478 103.396C48.4001 103.295 48.5525 103.193 48.654 103.041C48.7556 102.888 48.8064 102.685 48.8572 102.482C48.908 102.279 48.908 102.025 48.908 101.72C48.908 101.415 48.908 101.162 48.8572 100.958C48.8064 100.755 48.7556 100.552 48.654 100.4C48.4509 100.095 48.0446 99.9426 47.4859 99.9426H46.5718V99.8918Z" fill="white"/>
<path d="M56.679 109.897V98.3174H61.6054V99.8918H58.355V103.295H61.1991V104.818H58.355V108.221H61.6054V109.897H56.679Z" fill="white"/>
<path d="M80.3967 109.9L79.838 109.036C79.5333 109.341 79.1778 109.595 78.8222 109.747C78.4667 109.9 78.0604 110.001 77.6033 110.001C77.2986 110.001 76.9939 109.951 76.6892 109.798C76.3844 109.646 76.1305 109.493 75.9273 109.24C75.7242 109.036 75.521 108.732 75.4195 108.427C75.3179 108.071 75.2163 107.716 75.2163 107.31C75.2163 106.649 75.3687 106.091 75.6734 105.634C75.9781 105.177 76.3336 104.719 76.7907 104.313C76.486 103.907 76.2828 103.501 76.0797 103.043C75.8765 102.586 75.775 102.129 75.775 101.672C75.775 101.367 75.8258 101.063 75.9273 100.809C76.0289 100.555 76.1813 100.301 76.3336 100.098C76.5368 99.8946 76.7399 99.7422 77.0447 99.6406C77.3494 99.5391 77.6541 99.4375 78.0604 99.4375C78.4159 99.4375 78.7207 99.4883 79.0254 99.5899C79.2793 99.6914 79.5333 99.8438 79.6856 100.047C80.0412 100.453 80.2443 100.961 80.2443 101.52C80.2443 102.078 80.0919 102.586 79.7364 103.094C79.3809 103.602 79.0254 104.008 78.5683 104.465C78.6699 104.618 78.7715 104.77 78.9238 104.973C79.0254 105.177 79.1778 105.38 79.3301 105.583C79.5841 106.04 79.8888 106.497 80.1427 106.853L81.0569 105.634L82.0727 106.345L80.8538 107.919L82.1234 109.9H80.3967ZM76.6892 107.208C76.6892 107.614 76.7907 107.97 77.0447 108.224C77.2986 108.529 77.5525 108.63 77.9081 108.63C78.162 108.63 78.4159 108.529 78.6191 108.376C78.8222 108.224 79.0254 108.071 79.127 107.919L77.5525 105.38C77.2986 105.634 77.0955 105.888 76.9431 106.192C76.7907 106.548 76.6892 106.853 76.6892 107.208ZM77.2986 101.672C77.2986 101.926 77.3494 102.18 77.5018 102.485C77.6033 102.789 77.7557 103.043 77.9589 103.348C78.0604 103.247 78.162 103.145 78.2636 102.993C78.3652 102.891 78.4667 102.739 78.5683 102.586C78.6699 102.434 78.7714 102.282 78.8222 102.078C78.873 101.875 78.9238 101.723 78.9238 101.52C78.9238 101.317 78.873 101.113 78.7207 100.961C78.5683 100.809 78.3651 100.707 78.1112 100.707C77.8573 100.707 77.6541 100.809 77.5018 101.012C77.3494 101.215 77.2986 101.418 77.2986 101.672Z" fill="white"/>
<path d="M104.571 98.3174L102.845 109.897H101.321L100.051 102.38H100.001L98.7817 109.897H97.2072L95.4805 98.3174H97.258L98.0706 105.682L99.3911 98.3174H100.661L102.032 105.834L102.845 98.3174H104.571Z" fill="white"/>
<path d="M112.242 98.3174H110.566V109.897H112.242V98.3174Z" fill="white"/>
<path d="M118.589 109.897V98.3174H120.215L122.703 105.275H122.754V98.3174H124.379V109.897H122.805L120.316 102.939H120.265V109.897H118.589Z" fill="white"/>
<path d="M130.727 109.897V98.3174H135.705V99.8918H132.403V103.295H135.247V104.818H132.403V108.221H135.705V109.897H130.727Z" fill="white"/>
</svg>
