<svg width="25" height="26" viewBox="0 0 25 26" fill="none" xmlns="http://www.w3.org/2000/svg">
<path d="M12.377 2.96841C15.6539 2.96841 16.0386 2.98301 17.3338 3.04144C18.5316 3.095 19.1792 3.29464 19.6125 3.46506C20.1871 3.68904 20.5961 3.95197 21.0246 4.38046C21.4531 4.80895 21.7209 5.21795 21.94 5.79251C22.1055 6.22587 22.3101 6.87346 22.3636 8.07128C22.422 9.36647 22.4366 9.75113 22.4366 13.0281C22.4366 16.305 22.422 16.6897 22.3636 17.9849C22.3101 19.1827 22.1104 19.8303 21.94 20.2636C21.716 20.8382 21.4531 21.2472 21.0246 21.6757C20.5961 22.1042 20.1871 22.372 19.6125 22.5911C19.1792 22.7566 18.5316 22.9611 17.3338 23.0147C16.0386 23.0731 15.6539 23.0877 12.377 23.0877C9.10003 23.0877 8.71537 23.0731 7.42017 23.0147C6.22236 22.9611 5.57476 22.7615 5.14141 22.5911C4.56685 22.3671 4.15784 22.1042 3.72935 21.6757C3.30087 21.2472 3.03307 20.8382 2.81395 20.2636C2.6484 19.8303 2.4439 19.1827 2.39034 17.9849C2.33191 16.6897 2.3173 16.305 2.3173 13.0281C2.3173 9.75113 2.33191 9.36647 2.39034 8.07128C2.4439 6.87346 2.64353 6.22587 2.81395 5.79251C3.03793 5.21795 3.30087 4.80895 3.72935 4.38046C4.15784 3.95197 4.56685 3.68417 5.14141 3.46506C5.57476 3.29951 6.22236 3.095 7.42017 3.04144C8.71537 2.97814 9.1049 2.96841 12.377 2.96841ZM12.377 0.757812C9.04647 0.757812 8.62772 0.77242 7.31792 0.83085C6.01299 0.88928 5.12193 1.09865 4.34287 1.40054C3.53459 1.71217 2.85291 2.13578 2.17122 2.81746C1.48954 3.49914 1.0708 4.18569 0.754301 4.9891C0.452413 5.76817 0.243039 6.65922 0.18461 7.96902C0.12618 9.27396 0.111572 9.6927 0.111572 13.0232C0.111572 16.3537 0.12618 16.7724 0.18461 18.0822C0.243039 19.3872 0.452413 20.2782 0.754301 21.0622C1.06593 21.8704 1.48954 22.5521 2.17122 23.2338C2.85291 23.9155 3.53946 24.3342 4.34287 24.6507C5.12193 24.9526 6.01299 25.162 7.32279 25.2204C8.63259 25.2789 9.04647 25.2935 12.3818 25.2935C15.7172 25.2935 16.1311 25.2789 17.4409 25.2204C18.7458 25.162 19.6369 24.9526 20.4208 24.6507C21.2291 24.3391 21.9108 23.9155 22.5925 23.2338C23.2741 22.5521 23.6929 21.8656 24.0094 21.0622C24.3113 20.2831 24.5206 19.392 24.5791 18.0822C24.6375 16.7724 24.6521 16.3586 24.6521 13.0232C24.6521 9.68783 24.6375 9.27396 24.5791 7.96415C24.5206 6.65922 24.3113 5.76817 24.0094 4.98423C23.6978 4.17596 23.2741 3.49427 22.5925 2.81259C21.9108 2.13091 21.2242 1.71217 20.4208 1.39567C19.6418 1.09378 18.7507 0.88441 17.4409 0.825981C16.1262 0.77242 15.7075 0.757812 12.377 0.757812Z" fill="#948F51"/>
<path d="M12.3775 6.72705C8.90089 6.72705 6.07678 9.54629 6.07678 13.0277C6.07678 16.5092 8.89602 19.3284 12.3775 19.3284C15.8589 19.3284 18.6781 16.5092 18.6781 13.0277C18.6781 9.54629 15.8589 6.72705 12.3775 6.72705ZM12.3775 17.1129C10.1182 17.1129 8.28738 15.2821 8.28738 13.0229C8.28738 10.7636 10.1182 8.93277 12.3775 8.93277C14.6367 8.93277 16.4675 10.7636 16.4675 13.0229C16.4675 15.2821 14.6367 17.1129 12.3775 17.1129Z" fill="#948F51"/>
<path d="M18.9267 7.94536C19.7388 7.94536 20.3971 7.287 20.3971 6.47488C20.3971 5.66275 19.7388 5.00439 18.9267 5.00439C18.1145 5.00439 17.4562 5.66275 17.4562 6.47488C17.4562 7.287 18.1145 7.94536 18.9267 7.94536Z" fill="#948F51"/>
</svg>
