<svg width="22" height="22" viewBox="0 0 22 22" fill="none" xmlns="http://www.w3.org/2000/svg">
<path d="M19.8993 14.0652C18.6257 14.0652 17.3783 13.8663 16.1959 13.4762C15.6189 13.2773 14.9636 13.4305 14.5844 13.8174L12.2404 15.5877C9.55083 14.1521 7.82952 12.4319 6.41358 9.76189L8.13597 7.47333C8.56956 7.03974 8.72497 6.40509 8.53915 5.81069C8.14575 4.62076 7.94581 3.37217 7.94581 2.10073C7.94581 1.20203 7.21449 0.470703 6.31578 0.470703H2.51235C1.61365 0.470703 0.882324 1.20203 0.882324 2.10073C0.882324 12.5862 9.41392 21.1178 19.8993 21.1178C20.798 21.1178 21.5294 20.3864 21.5294 19.4877V15.6952C21.5294 14.7966 20.798 14.0652 19.8993 14.0652Z" fill="#948F51"/>
</svg>
