<svg width="127" height="95" viewBox="0 0 127 95" fill="none" xmlns="http://www.w3.org/2000/svg">
<path d="M110.725 67.8587C115.622 61.6145 119.606 54.9189 122.428 47.9224C125.25 41.0763 126.661 33.7789 126.661 26.1805C126.661 23.7731 126.246 20.9895 125.499 17.7546C124.752 14.6701 123.507 11.6609 121.93 8.8773C120.436 6.31943 118.444 4.13772 115.871 2.33217C113.63 0.752313 110.891 0 107.571 0C103.504 0 99.5194 0.752313 95.7013 2.18171C91.8002 3.68634 88.3971 5.56712 85.4921 7.89929C82.587 10.2315 80.2629 12.7141 78.5199 15.3472C77.1088 17.5289 76.3618 19.6354 76.3618 21.5162C76.3618 22.4189 76.8598 23.3969 77.9389 24.5254C82.67 28.4374 87.1521 33.1018 91.0532 38.368C95.4523 44.3113 97.6934 51.2325 97.6934 58.9061C97.6934 65.8274 95.7843 73.1249 91.9662 80.5728C89.5592 85.3123 85.9071 89.8262 81.1759 94.1144C85.3261 91.3308 89.3932 88.3968 93.2943 85.3123C99.9344 80.0461 105.745 74.1781 110.725 67.8587Z" fill="#79885F"/>
<path d="M34.2799 67.8584C39.177 61.6142 43.1611 54.9186 45.9832 47.9221C48.8053 41.076 50.2163 33.7786 50.2163 26.1802C50.2163 23.7728 49.8013 20.9893 49.0543 17.7543C48.3073 14.6698 47.0622 11.6606 45.4852 8.87702C43.9912 6.31915 41.9991 4.13744 39.426 2.33189C37.185 0.827264 34.5289 0.0749512 31.2088 0.0749512C27.1417 0.0749512 23.1576 0.827264 19.3395 2.25666C15.4384 3.76129 12.0353 5.64207 9.13024 7.97424C6.22516 10.3064 3.9011 12.789 2.15806 15.4221C0.74702 17.5286 0 19.6351 0 21.5159C0 22.1177 0.166004 23.0957 1.49404 24.4499C6.30817 28.3619 10.7073 33.0263 14.6914 38.3677C19.0905 44.311 21.3316 51.2323 21.3316 58.9058C21.3316 65.8271 19.4225 73.1246 15.6044 80.5725C13.1973 85.312 9.54525 89.8259 4.81413 94.1141C8.96424 91.3306 13.0313 88.3965 16.9324 85.312C23.4066 80.0459 29.2998 74.1778 34.2799 67.8584Z" fill="#79885F"/>
</svg>
