<svg width="26" height="26" viewBox="0 0 26 26" fill="none" xmlns="http://www.w3.org/2000/svg">
<path d="M0 26L1.83923 19.324C0.707395 17.3717 0.109325 15.1507 0.109325 12.8848C0.109325 5.77991 5.92283 0 13.0547 0C16.5209 0 19.7685 1.34417 22.2122 3.77646C24.6559 6.20876 26 9.44756 26 12.8912C26 19.9961 20.1865 25.776 13.0547 25.776H13.0482C10.881 25.776 8.75241 25.2319 6.86174 24.2078L0 26Z" fill="#948F51"/>
<path fill-rule="evenodd" clip-rule="evenodd" d="M10.3028 7.60205C10.0634 7.02646 9.81169 7.01323 9.58454 7.00662C9.40037 7 9.18551 7 8.97064 7C8.75577 7 8.41198 7.08601 8.11731 7.43003C7.82263 7.77406 7 8.60766 7 10.3079C7 12.0016 8.148 13.6424 8.30762 13.8739C8.46724 14.1055 10.5238 17.6979 13.7714 19.0806C16.4726 20.2318 17.0251 20.0002 17.6083 19.9407C18.1915 19.8812 19.4991 19.1071 19.7692 18.3C20.0332 17.4928 20.0332 16.8048 19.9534 16.6592C19.8736 16.5137 19.6587 16.4277 19.3395 16.2556C19.0203 16.0836 17.4487 15.25 17.154 15.1309C16.8593 15.0185 16.6445 14.9589 16.4357 15.303C16.2209 15.647 15.607 16.421 15.4228 16.6526C15.2386 16.8842 15.0483 16.9106 14.7291 16.7386C14.4098 16.5666 13.3785 16.2027 12.1568 15.0251C11.2053 14.1121 10.5607 12.9808 10.3765 12.6367C10.1923 12.2927 10.3581 12.1075 10.5177 11.9355C10.6589 11.7833 10.8369 11.5319 10.9965 11.3334C11.1561 11.1349 11.2114 10.9894 11.3158 10.7578C11.4201 10.5263 11.371 10.3278 11.2912 10.1558C11.2053 9.99039 10.5852 8.28348 10.3028 7.60205Z" fill="white"/>
</svg>
